<?xml version="1.0" encoding="utf-8"?>
<!-- Generator: Adobe Illustrator 24.3.0, SVG Export Plug-In . SVG Version: 6.00 Build 0)  -->
<svg version="1.1" id="Calque_1" xmlns="http://www.w3.org/2000/svg" xmlns:xlink="http://www.w3.org/1999/xlink" x="0px" y="0px"
	 viewBox="0 0 33.1 30.6" style="enable-background:new 0 0 33.1 30.6;" xml:space="preserve">
<style type="text/css">
	.st0{fill-rule:evenodd;clip-rule:evenodd;fill:#FFFFFF;}
</style>
<path class="st0" d="M22.4,11.9c0.3,0,0.7-0.1,1-0.3c0.4-0.2,0.7-0.5,1-0.8v1h1.8V3.1h-1.8v6.6c-0.2,0.2-0.4,0.3-0.6,0.5
	c-0.2,0.1-0.4,0.2-0.5,0.2c-0.2,0-0.3,0-0.4-0.1c-0.1-0.1-0.1-0.2-0.1-0.4V3.1h-1.8v7.3c0,0.5,0.1,0.9,0.3,1.2
	C21.6,11.8,21.9,11.9,22.4,11.9z"/>
<path class="st0" d="M16.3,5.1c0-0.2,0.1-0.3,0.2-0.5c0.1-0.1,0.3-0.2,0.5-0.2c0.2,0,0.4,0.1,0.6,0.2c0.1,0.1,0.2,0.3,0.2,0.5v4.7
	c0,0.2-0.1,0.4-0.2,0.6c-0.1,0.1-0.3,0.2-0.6,0.2c-0.2,0-0.4-0.1-0.5-0.2c-0.1-0.1-0.2-0.3-0.2-0.6V5.1z M17,12
	c0.8,0,1.5-0.2,1.9-0.6c0.5-0.4,0.7-1,0.7-1.8V5.1c0-0.7-0.2-1.2-0.7-1.6c-0.5-0.4-1.1-0.6-1.8-0.6c-0.8,0-1.5,0.2-2,0.6
	c-0.5,0.4-0.7,0.9-0.7,1.6v4.5c0,0.7,0.2,1.3,0.7,1.8C15.6,11.8,16.2,12,17,12z"/>
<path class="st0" d="M9.8,11.8h2V6.9L14.2,0h-2.1l-1.3,4.7h-0.1L9.5,0h-2l2.4,7.1V11.8z"/>
<path class="st0" d="M20.3,20.6c-0.1,0-0.2,0-0.3,0.1c-0.1,0.1-0.2,0.1-0.3,0.2v4.9c0.1,0.1,0.3,0.2,0.4,0.3
	c0.1,0.1,0.3,0.1,0.4,0.1c0.2,0,0.3-0.1,0.4-0.2c0.1-0.1,0.1-0.3,0.1-0.5v-4.1c0-0.3-0.1-0.5-0.2-0.6C20.6,20.6,20.5,20.6,20.3,20.6
	z"/>
<path class="st0" d="M25.8,20.6c-0.3,0-0.4,0.1-0.6,0.2c-0.1,0.1-0.2,0.4-0.2,0.7v0.8h1.4v-0.8c0-0.3-0.1-0.6-0.2-0.7
	C26.2,20.7,26,20.6,25.8,20.6z"/>
<path class="st0" d="M28.1,23.6h-3.1v1.5c0,0.4,0.1,0.7,0.2,0.9c0.1,0.2,0.3,0.2,0.5,0.2c0.3,0,0.5-0.1,0.6-0.2
	c0.1-0.1,0.2-0.4,0.2-0.9v-0.4h1.7v0.4c0,0.8-0.2,1.4-0.6,1.8c-0.4,0.4-1,0.6-1.8,0.6c-0.7,0-1.3-0.2-1.7-0.7
	c-0.4-0.4-0.6-1-0.6-1.8v-3.6c0-0.7,0.2-1.2,0.7-1.7c0.5-0.4,1-0.6,1.8-0.6c0.7,0,1.3,0.2,1.7,0.6c0.4,0.4,0.6,1,0.6,1.7V23.6z
	 M22.6,25.7c0,0.6-0.1,1-0.4,1.3c-0.3,0.3-0.6,0.4-1.1,0.4c-0.3,0-0.6-0.1-0.8-0.2c-0.2-0.1-0.5-0.3-0.7-0.5v0.6H18V16.6h1.6v3.5
	c0.2-0.2,0.4-0.4,0.7-0.5s0.5-0.2,0.7-0.2c0.5,0,0.9,0.2,1.2,0.5c0.3,0.3,0.4,0.8,0.4,1.5V25.7z M16.8,27.3h-1.6v-0.9
	c-0.3,0.3-0.6,0.6-0.9,0.7c-0.3,0.2-0.6,0.3-0.9,0.3c-0.4,0-0.7-0.1-0.8-0.4c-0.2-0.2-0.3-0.6-0.3-1.1v-6.6h1.6v6.1
	c0,0.2,0,0.3,0.1,0.4C13.9,26,14,26,14.2,26c0.1,0,0.3-0.1,0.5-0.2c0.2-0.1,0.3-0.3,0.5-0.4v-6h1.6V27.3z M11.5,18.2H9.6v9.2H7.8
	v-9.2H5.9v-1.6h5.6V18.2z M27.3,14.6H7.2c-3.2,0-5.8,2.6-5.8,5.7v4.6c0,3.2,2.6,5.7,5.8,5.7h20.1c3.2,0,5.8-2.6,5.8-5.7v-4.6
	C33.1,17.1,30.5,14.6,27.3,14.6z"/>
</svg>
