<?xml version="1.0" encoding="utf-8"?>
<!-- Generator: Adobe Illustrator 24.3.0, SVG Export Plug-In . SVG Version: 6.00 Build 0)  -->
<svg version="1.1" id="Calque_1" xmlns="http://www.w3.org/2000/svg" xmlns:xlink="http://www.w3.org/1999/xlink" x="0px" y="0px"
	 viewBox="0 0 22.7 22.7" style="enable-background:new 0 0 22.7 22.7;" xml:space="preserve">
<style type="text/css">
	.st0{fill-rule:evenodd;clip-rule:evenodd;fill:#FFFFFF;}
</style>
<path class="st0" d="M7,1.7C4.1,1.7,1.7,4.1,1.7,7v8.8C1.7,18.7,4.1,21,7,21h8.8c2.9,0,5.3-2.4,5.3-5.3V7c0-2.9-2.4-5.3-5.3-5.3H7z
	 M15.8,22.7H7c-3.8,0-7-3.1-7-7V7c0-3.8,3.1-7,7-7h8.8c3.8,0,7,3.1,7,7v8.8C22.7,19.6,19.6,22.7,15.8,22.7z"/>
<path class="st0" d="M11.4,7.4c-2.2,0-4,1.8-4,4c0,2.2,1.8,4,4,4c2.2,0,4-1.8,4-4C15.4,9.1,13.6,7.4,11.4,7.4z M11.4,17.1
	c-3.2,0-5.7-2.6-5.7-5.7c0-3.2,2.6-5.7,5.7-5.7s5.7,2.6,5.7,5.7C17.1,14.5,14.5,17.1,11.4,17.1z"/>
<path class="st0" d="M19.2,5c0,0.8-0.7,1.5-1.5,1.5c-0.8,0-1.5-0.7-1.5-1.5c0-0.8,0.7-1.5,1.5-1.5C18.6,3.5,19.2,4.2,19.2,5z"/>
</svg>
